HIERARCHY
ROOT Hips
{
    OFFSET 0.000000 0.000000 0.000000
    CHANNELS 6 Xposition Yposition Zposition Zrotation Xrotation Yrotation
    JOINT Spine
    {
        OFFSET -0.000000 7.236184 0.000000
        CHANNELS 3 Zrotation Xrotation Yrotation
        JOINT Spine1
        {
            OFFSET -0.000000 20.420147 0.000000
            CHANNELS 3 Zrotation Xrotation Yrotation
            JOINT Neck
            {
                OFFSET -0.000000 20.336288 1.848754
                CHANNELS 3 Zrotation Xrotation Yrotation
                JOINT Head
                {
                    OFFSET -0.000000 12.354461 -1.764923
                    CHANNELS 3 Zrotation Xrotation Yrotation
                    End Site
                    {
                        OFFSET -0.000000 22.061537 0.000000
                    }
                }
            }
            JOINT LeftShoulder
            {
                OFFSET 3.573296 18.396038 -0.314103
                CHANNELS 3 Zrotation Xrotation Yrotation
                JOINT LeftArm
                {
                    OFFSET 10.880760 0.000000 0.000000
                    CHANNELS 3 Zrotation Xrotation Yrotation
                    JOINT LeftForeArm
                    {
                        OFFSET 27.185530 0.000000 0.000000
                        CHANNELS 3 Zrotation Xrotation Yrotation
                        JOINT LeftHand
                        {
                            OFFSET 27.825975 0.000000 0.000000
                            CHANNELS 3 Zrotation Xrotation Yrotation
                            End Site
                            {
                                OFFSET 13.236923 0.000000 0.000000
                            }
                        }
                    }
                }
            }
            JOINT RightShoulder
            {
                OFFSET -3.474926 18.396038 -0.314103
                CHANNELS 3 Zrotation Xrotation Yrotation
                JOINT RightArm
                {
                    OFFSET -10.880760 0.000000 0.000000
                    CHANNELS 3 Zrotation Xrotation Yrotation
                    JOINT RightForeArm
                    {
                        OFFSET -27.185530 0.000000 0.000000
                        CHANNELS 3 Zrotation Xrotation Yrotation
                        JOINT RightHand
                        {
                            OFFSET -27.825975 0.000000 0.000000
                            CHANNELS 3 Zrotation Xrotation Yrotation
                            End Site
                            {
                                OFFSET -13.236923 0.000000 0.000000
                            }
                        }
                    }
                }
            }
        }
    }
    JOINT LeftUpLeg
    {
        OFFSET 8.824615 0.000000 0.000000
        CHANNELS 3 Zrotation Xrotation Yrotation
        JOINT LeftLeg
        {
            OFFSET -0.000000 -35.111282 0.000000
            CHANNELS 3 Zrotation Xrotation Yrotation
            JOINT LeftFoot
            {
                OFFSET -0.000000 -42.324711 0.000000
                CHANNELS 3 Zrotation Xrotation Yrotation
                JOINT LeftToeBase
                {
                    OFFSET -0.000000 -5.735999 13.236923
                    CHANNELS 3 Zrotation Xrotation Yrotation
                    End Site
                    {
                        OFFSET -0.000000 0.000000 3.529846
                    }
                }
            }
        }
    }
    JOINT RightUpLeg
    {
        OFFSET -8.824615 0.000000 0.000000
        CHANNELS 3 Zrotation Xrotation Yrotation
        JOINT RightLeg
        {
            OFFSET -0.000000 -35.111282 0.000000
            CHANNELS 3 Zrotation Xrotation Yrotation
            JOINT RightFoot
            {
                OFFSET -0.000000 -42.324711 0.000000
                CHANNELS 3 Zrotation Xrotation Yrotation
                JOINT RightToeBase
                {
                    OFFSET -0.000000 -5.735999 13.236923
                    CHANNELS 3 Zrotation Xrotation Yrotation
                    End Site
                    {
                        OFFSET -0.000000 0.000000 3.529846
                    }
                }
            }
        }
    }
}
MOTION
Frames:    5
Frame Time:    0.008333
-1.088009    81.677269    111.073997    7.998435    -11.054930    -162.686127    0.436808    -8.322742    2.558829    9.238625    -0.675126    2.581535    4.081071    17.663609    -12.311081    11.703255    -1.180433    -10.998147    3.767981    12.317457    2.956822    -49.962509    34.237549    -21.838640    7.339643    -3.239123    -23.944101    24.749321    -1.262441    1.912369    6.521646    17.266182    -11.005363    50.316593    35.222019    26.736425    -8.397346    -5.489808    39.165878    -16.254080    -2.592093    0.619090    14.165301    -30.715282    0.234620    1.837112    30.729630    1.907170    -13.854106    -11.099608    -17.994263    1.803099    -1.642278    -2.004641    -31.191114    -12.270695    -3.825166    8.930290    68.530556    0.700288    11.708678    1.176543    -11.897767    1.879021    -18.917793    -2.097085    
-1.428979    81.707329    111.036278    7.920608    -10.885342    -162.926178    0.477148    -8.361351    2.451416    9.227390    -0.666337    2.470293    4.162459    17.946259    -12.184769    11.488021    -0.985633    -10.905427    3.871981    12.151896    2.867554    -49.182068    33.232841    -22.150305    7.440889    -3.359106    -23.890259    24.790236    -1.389802    1.795090    6.502532    17.270569    -11.156167    50.371441    35.178146    26.339043    -8.384471    -5.530439    39.511204    -16.278934    -2.602024    0.569664    13.997164    -30.433662    0.333495    1.802372    30.847479    1.953555    -13.729087    -11.248732    -17.993160    1.860309    -1.619516    -2.068156    -31.632671    -12.204695    -3.614717    10.141238    72.799637    0.171600    11.290848    1.276760    -11.980882    1.196019    -21.560154    -1.342246    
-1.754616    81.709541    111.004616    7.847234    -10.726389    -163.171677    0.515097    -8.400193    2.352573    9.212480    -0.645147    2.366689    4.249730    18.212673    -12.060472    11.268236    -0.813202    -10.812713    3.974862    11.988511    2.770413    -48.441551    32.200485    -22.468800    7.522177    -3.464710    -23.795521    24.815693    -1.510885    1.674442    6.487169    17.264120    -11.295262    50.414158    35.118679    25.950045    -8.385237    -5.577473    39.862942    -16.322994    -2.614112    0.528249    13.848475    -30.222807    0.460589    1.777587    31.059452    1.995703    -13.616791    -11.414020    -18.008263    1.913340    -1.593393    -2.127007    -32.078953    -12.122320    -3.364808    12.273396    77.143448    -1.279578    10.880455    1.322011    -12.039656    0.684481    -23.570135    -0.771604    
-2.064317    81.685135    110.979691    7.780833    -10.581068    -163.424896    0.552259    -8.440173    2.262555    9.194390    -0.611335    2.270923    4.343870    18.458941    -11.937035    11.043770    -0.663240    -10.719052    4.076334    11.825213    2.664876    -47.749977    31.145679    -22.786470    7.585435    -3.554600    -23.663712    24.829142    -1.623392    1.552003    6.475671    17.246958    -11.421510    50.445694    35.042763    25.572266    -8.400508    -5.628509    40.218155    -16.387310    -2.625799    0.495346    13.720873    -30.083361    0.615327    1.764243    31.361696    2.032773    -13.515353    -11.595278    -18.035582    1.960939    -1.565765    -2.179807    -32.526520    -12.026592    -3.075018    16.755541    81.492172    -5.083995    10.474284    1.311120    -12.081926    0.302436    -25.036100    -0.342080    
-2.358700    81.635857    110.962036    7.722919    -10.451540    -163.688950    0.590175    -8.481972    2.181147    9.173130    -0.564641    2.182629    4.445863    18.682407    -11.812839    10.814185    -0.534825    -10.623121    4.176717    11.659619    2.550456    -47.112976    30.071741    -23.097052    7.632936    -3.628169    -23.498569    24.834002    -1.725664    1.428651    6.468098    17.219812    -11.535106    50.466389    34.949921    25.208565    -8.430774    -5.681568    40.574955    -16.471975    -2.634973    0.471436    13.614484    -30.013233    0.796270    1.763602    31.748499    2.064510    -13.422585    -11.792223    -18.070705    2.002309    -1.537901    -2.225678    -32.973835    -11.921735    -2.746515    30.524277    85.685112    -18.177185    10.068722    1.245248    -12.117227    0.018517    -26.036303    -0.020961    
